<?xml version="1.0" encoding="UTF-8"?>
<svg version="1.1" xmlns="http://www.w3.org/2000/svg" width="500" height="500">
<path d="M0 0 C165 0 330 0 500 0 C500 165 500 330 500 500 C335 500 170 500 0 500 C0 335 0 170 0 0 Z " fill="#0A2E63" transform="translate(0,0)"/>
<path d="M0 0 C0.77943466 0.00222061 1.55886932 0.00444122 2.36192322 0.00672913 C3.24276077 0.00680466 4.12359833 0.00688019 5.03112793 0.00695801 C5.98841293 0.01211929 6.94569794 0.01728058 7.93199158 0.02259827 C9.39480812 0.02472069 9.39480812 0.02472069 10.88717651 0.02688599 C14.01542675 0.03250319 17.14360656 0.04505859 20.27183533 0.05775452 C22.38706867 0.0627673 24.50230313 0.06733059 26.61753845 0.07142639 C31.81482829 0.0824782 37.01207678 0.09923305 42.20933533 0.12025452 C40.43773539 5.71301097 38.45439613 11.06023512 35.97886658 16.38978577 C35.67185822 17.05516357 35.36484985 17.72054138 35.04853821 18.40608215 C34.3882859 19.83637107 33.72604284 21.26574245 33.06196594 22.69425964 C31.24860313 26.59684966 29.45204215 30.50716545 27.65464783 34.41712952 C27.28319138 35.22449051 26.91173492 36.0318515 26.52902222 36.86367798 C22.74440349 45.10411556 19.06403391 53.38955983 15.39683533 61.68275452 C9.5017317 75.00335067 3.53460748 88.28985879 -2.47816467 101.55775452 C-4.09541739 105.12673539 -5.71265582 108.69572271 -7.32972717 112.26478577 C-7.71733215 113.12025497 -8.10493713 113.97572418 -8.50428772 114.8571167 C-11.8050203 122.14525023 -15.08476865 129.44256276 -18.35316467 136.74525452 C-23.38157797 147.98041454 -28.42573825 159.20837566 -33.47816467 170.43275452 C-34.04597656 171.69428848 -34.04597656 171.69428848 -34.6252594 172.98130798 C-37.7389859 179.899168 -40.8532498 186.81678605 -43.96754456 193.73439026 C-46.67966734 199.75873276 -49.39158468 205.78316768 -52.10316467 211.80775452 C-52.48201813 212.64948212 -52.86087158 213.49120972 -53.25120544 214.35844421 C-57.93940255 224.77530712 -62.62090034 235.19511302 -67.29066467 245.62025452 C-73.47672907 259.43050103 -79.68566022 273.23040963 -85.897995 287.02885437 C-86.27894318 287.87499298 -86.65989136 288.72113159 -87.05238342 289.59291077 C-87.4359903 290.44493073 -87.81959717 291.29695068 -88.21482849 292.17478943 C-90.67817516 297.64679596 -93.13924769 303.11981988 -95.59872437 308.59356689 C-97.26179838 312.29481339 -98.92546535 315.99579323 -100.5891571 319.69676208 C-101.38516554 321.46797235 -102.1808846 323.23931269 -102.9763031 325.01078796 C-104.08033657 327.46949134 -105.18539124 329.92773335 -106.29066467 332.38587952 C-106.61690323 333.11314743 -106.94314178 333.84041534 -107.27926636 334.58972168 C-108.7247294 337.80202468 -110.21482395 340.96857306 -111.79066467 344.12025452 C-126.31066467 344.12025452 -140.83066467 344.12025452 -155.79066467 344.12025452 C-155.09297746 340.63181844 -154.62194171 338.39984996 -153.21864319 335.33192444 C-152.89570282 334.61893692 -152.57276245 333.9059494 -152.24003601 333.1713562 C-151.88678253 332.40554733 -151.53352905 331.63973846 -151.16957092 330.85072327 C-150.7984317 330.03484238 -150.42729248 329.21896149 -150.04490662 328.37835693 C-148.81902592 325.68598571 -147.58599566 322.99694935 -146.35316467 320.30775452 C-145.4893557 318.41301255 -144.62616494 316.51798864 -143.76356506 314.62269592 C-142.42994249 311.69275143 -141.09590897 308.76300114 -139.75994873 305.8341217 C-135.75401496 297.05156643 -131.7857265 288.25238695 -127.82978821 279.44721985 C-126.35083843 276.15541146 -124.87056366 272.8641995 -123.3903656 269.57295227 C-122.27560085 267.0941586 -121.16106104 264.61526388 -120.04652405 262.1363678 C-117.73870806 257.00405122 -115.42892102 251.872623 -113.11878967 246.74134827 C-106.49979249 232.03861943 -99.88205648 217.33538516 -93.29066467 202.62025452 C-88.23974658 191.34419601 -83.17431869 180.07472398 -78.10316467 168.80775452 C-77.72471405 167.96691315 -77.34626343 167.12607178 -76.9563446 166.25975037 C-73.84252729 159.34170691 -70.72816351 152.4239095 -67.61378479 145.50611877 C-64.90166201 139.48177627 -62.18974467 133.45734135 -59.47816467 127.43275452 C-58.90988449 126.17016312 -58.90988449 126.17016312 -58.3301239 124.88206482 C-53.12738641 113.32192731 -47.93495053 101.75724977 -42.75331116 90.18763733 C-39.70438619 83.38236483 -36.64904001 76.5800337 -33.58753967 69.78041077 C-33.2187822 68.96136765 -32.85002472 68.14232452 -32.47009277 67.29846191 C-30.94735369 63.91657777 -29.42450173 60.5347447 -27.90104675 57.15318298 C-23.54930935 47.49339125 -19.20957039 37.82846712 -14.89613342 28.15150452 C-14.5012674 27.26623581 -14.10640137 26.3809671 -13.6995697 25.46887207 C-11.79974529 21.20944535 -9.90212112 16.9490656 -8.00843811 12.68690491 C-7.33047906 11.16594524 -6.6524246 9.64502809 -5.97425842 8.12416077 C-5.6647374 7.42516663 -5.35521637 6.72617249 -5.03631592 6.0059967 C-2.42578219 0.1629067 -2.42578219 0.1629067 0 0 Z " fill="#F3F7FD" transform="translate(306.79066467285156,67.87974548339844)"/>
</svg>
